<svg xmlns="http://www.w3.org/2000/svg" version="1.1" xmlns:xlink="http://www.w3.org/1999/xlink" xmlns:svgjs="http://svgjs.dev/svgjs" width="1920" height="1100" preserveAspectRatio="none" viewBox="0 0 1920 1100"><g mask="url(&quot;#SvgjsMask4942&quot;)"  fill="none"><path d="M1146.618,879.662C1214.907,882.905,1279.599,848.67,1316.14,790.889C1355.452,728.727,1371.879,647.819,1332.541,585.673C1295.055,526.453,1216.698,522.062,1146.618,523.08C1078.967,524.062,1003.248,532.117,969.817,590.939C936.63,649.332,967.792,718.731,1002.867,776.01C1035.932,830.006,1083.373,876.658,1146.618,879.662" fill="rgba(28, 83, 142, 0.4)" class="triangle-float3"></path><path d="M1026.79 226.36 a311.56 311.56 0 1 0 623.12 0 a311.56 311.56 0 1 0 -623.12 0z" fill="rgba(28, 83, 142, 0.4)" class="triangle-float3"></path><path d="M486.3433207750813 653.4692408966364L787.2670596276623 695.7613143367425 829.5591330677685 394.8375754841616 528.6353942151875 352.5455020440554z" fill="rgba(28, 100, 142, 0.4)" class="triangle-float3"></path><path d="M910.3172296723425 480.3712435370985L640.2171828600556 354.42152324050556 514.2674625634626 624.5215700527925 784.3675093757495 750.4712903493855z" fill="rgba(28, 83, 142, 0.4)" class="triangle-float2"></path><path d="M-113.55513821405115 296.60401921502535L28.942672153167905 420.4754759351004 143.50095204967096 144.7930320242343z" fill="rgba(28, 83, 142, 0.4)" class="triangle-float1"></path><path d="M1941.659,848.222C2040.935,845.912,2121.985,775.383,2168.562,687.681C2212.123,605.659,2206.076,511.029,2164.965,427.752C2117.587,331.781,2048.624,231.738,1941.659,228.055C1830.494,224.228,1741.55,312.82,1690.03,411.4C1642.482,502.38,1644.457,609.73,1695.698,698.683C1747.03,787.795,1838.848,850.614,1941.659,848.222" fill="rgba(28, 83, 142, 0.4)" class="triangle-float2"></path><path d="M380.796326508104 485.24788100345205L345.26548830862066 652.4073322117487 613.7700842208072 622.1238639068254z" fill="rgba(28, 83, 142, 0.4)" class="triangle-float3"></path><path d="M98.53 366.81 a349.26 349.26 0 1 0 698.52 0 a349.26 349.26 0 1 0 -698.52 0z" fill="rgba(28, 83, 142, 0.4)" class="triangle-float3"></path><path d="M1774.789,858.119C1822.245,856.169,1859.08,822.368,1883.54,781.655C1908.949,739.362,1926.876,688.025,1902.882,644.913C1878.404,600.932,1825.112,585.201,1774.789,586.251C1726.507,587.258,1680.829,608.875,1655.629,650.071C1629.278,693.148,1624.273,747.457,1649.371,791.277C1674.606,835.336,1724.058,860.204,1774.789,858.119" fill="rgba(28, 83, 142, 0.4)" class="triangle-float2"></path><path d="M1623.111790265892 387.5661722027486L1865.4891150562298 299.34804051799375 1777.270983371475 56.97071572765594 1534.8936585811373 145.1888474124108z" fill="rgba(28, 83, 149, 0.4)" class="triangle-float1"></path><path d="M1882.650843266622 673.2639046583054L1824.5962421950292 440.4196175763318 1591.7519551130556 498.47421864792443 1649.8065561846483 731.3185057298981z" fill="rgba(28, 83, 142, 0.4)" class="triangle-float3"></path><path d="M1251.2569419639744 102.5733748166254L1282.6346430348838 228.42246001001593 1455.7194202895148 118.4313658069566z" fill="rgba(28, 83, 142, 0.4)" class="triangle-float2"></path><path d="M541.69 1073.57 a211.28 211.28 0 1 0 422.56 0 a211.28 211.28 0 1 0 -422.56 0z" fill="rgba(28, 83, 142, 0.4)" class="triangle-float3"></path><path d="M208.95555573403843 842.5734534102907L139.11663524371235 627.6313575631227-5.986540113129564 912.4123739006168z" fill="rgba(28, 83, 142, 0.4)" class="triangle-float3"></path><path d="M74.6 329.76 a208.48 208.48 0 1 0 416.96 0 a208.48 208.48 0 1 0 -416.96 0z" fill="rgba(28, 83, 142, 0.4)" class="triangle-float3"></path><path d="M1365.703240453874 1103.4604090224125L1338.0607771838213 787.5056080685513 1022.1059762299601 815.1480713386042 1049.7484395000129 1131.1028722924652z" fill="rgba(28, 83, 142, 0.4)" class="triangle-float1"></path><path d="M186.16729506690996 407.6620390039685L155.15537836961283 702.7207168860441 450.2140562516884 733.7326335833412 481.22597294898554 438.67395570126564z" fill="rgba(28, 83, 142, 0.4)" class="triangle-float2"></path><path d="M-182.78 390.72 a263.43 263.43 0 1 0 526.86 0 a263.43 263.43 0 1 0 -526.86 0z" fill="rgba(28, 83, 142, 0.4)" class="triangle-float2"></path><path d="M644.0201151109866 653.5158760833748L877.4153290832492 661.6662165509774 885.5656695508518 428.27100257871473 652.1704555785892 420.12066211111215z" fill="rgba(28, 83, 142, 0.4)" class="triangle-float3"></path><path d="M243.29 163.65 a230.18 230.18 0 1 0 460.36 0 a230.18 230.18 0 1 0 -460.36 0z" fill="rgba(28, 83, 142, 0.4)" class="triangle-float1"></path></g><defs><mask id="SvgjsMask4942"><rect width="1920" height="1100" fill="#ffffff"></rect></mask><style>
                @keyframes float1 {
                    0%{transform: translate(0, 0)}
                    50%{transform: translate(-10px, 0)}
                    100%{transform: translate(0, 0)}
                }

                .triangle-float1 {
                    animation: float1 5s infinite;
                }

                @keyframes float2 {
                    0%{transform: translate(0, 0)}
                    50%{transform: translate(-5px, -5px)}
                    100%{transform: translate(0, 0)}
                }

                .triangle-float2 {
                    animation: float2 4s infinite;
                }

                @keyframes float3 {
                    0%{transform: translate(0, 0)}
                    50%{transform: translate(0, -10px)}
                    100%{transform: translate(0, 0)}
                }

                .triangle-float3 {
                    animation: float3 6s infinite;
                }
                .be{
                     fill: linear-gradient(to bottom, green, blue, red, pink);
                }
            </style></defs></svg>