<svg xmlns="http://www.w3.org/2000/svg" version="1.1" xmlns:xlink="http://www.w3.org/1999/xlink" xmlns:svgjs="http://svgjs.dev/svgjs" width="1440" height="560" preserveAspectRatio="none" viewBox="0 0 1440 560"><g mask="url(&quot;#SvgjsMask1741&quot;)" fill="none"><rect width="1440" height="560" x="0" y="0" fill="url(&quot;#SvgjsLinearGradient1742&quot;)"></rect><path d="M1536 560L0 560 L0 182.63Q56.73 167.36, 72 224.09Q148.29 180.38, 192 256.68Q204.78 197.46, 264 210.24Q305.94 180.18, 336 222.12Q354.56 168.68, 408 187.24Q432.56 91.8, 528 116.36Q597.53 65.89, 648 135.42Q732.1 99.52, 768 183.62Q842.79 186.41, 840 261.2Q826.11 127.31, 960 113.42Q1015.5 96.93, 1032 152.43Q1121.06 121.49, 1152 210.55Q1177.12 163.67, 1224 188.78Q1268.56 113.34, 1344 157.9Q1364.72 106.62, 1416 127.34Q1469.42 60.76, 1536 114.18z" fill="#182f5d"></path><path d="M1512 560L0 560 L0 323.16Q59.33 310.49, 72 369.82Q80.4 258.22, 192 266.61Q257 211.62, 312 276.62Q349.1 193.72, 432 230.81Q473.32 200.13, 504 241.45Q583.86 249.31, 576 329.17Q560.28 241.45, 648 225.73Q737.1 242.82, 720 331.92Q800.06 291.98, 840 372.04Q844.22 304.25, 912 308.47Q912.87 237.34, 984 238.21Q1022.07 204.28, 1056 242.35Q1111.63 225.99, 1128 281.62Q1175.11 256.73, 1200 303.83Q1260.36 292.19, 1272 352.55Q1300.79 261.34, 1392 290.13Q1476.27 254.4, 1512 338.67z" fill="#25467d"></path><path d="M1560 560L0 560 L0 433.57Q3.74 365.31, 72 369.04Q101.88 326.92, 144 356.79Q198.19 338.98, 216 393.16Q291.51 348.67, 336 424.18Q365.51 381.69, 408 411.2Q434.75 317.95, 528 344.7Q570.82 315.52, 600 358.34Q721.2 359.54, 720 480.75Q685.17 373.93, 792 339.1Q877.64 304.74, 912 390.38Q978.17 384.56, 984 450.73Q1011.17 405.9, 1056 433.07Q1068.98 326.05, 1176 339.03Q1217.97 309, 1248 350.97Q1318.37 301.34, 1368 371.7Q1429.11 360.81, 1440 421.92Q1457.96 319.88, 1560 337.84z" fill="#356cb1"></path><path d="M1464 560L0 560 L0 513.3Q93.92 487.22, 120 581.14Q152.2 493.34, 240 525.54Q256.44 469.98, 312 486.41Q353.94 456.35, 384 498.28Q472.04 514.32, 456 602.36Q454.79 481.15, 576 479.95Q622.29 406.24, 696 452.52Q751.1 435.62, 768 490.72Q814.06 464.78, 840 510.84Q882.88 433.71, 960 476.59Q1006.51 451.1, 1032 497.6Q1105.51 451.11, 1152 524.62Q1207.78 508.4, 1224 564.18Q1295.64 515.82, 1344 587.46Q1379.17 502.63, 1464 537.81z" fill="white"></path></g><defs><mask id="SvgjsMask1741"><rect width="1440" height="560" fill="#ffffff"></rect></mask><linearGradient x1="15.28%" y1="139.29%" x2="84.72%" y2="-39.29%" gradientUnits="userSpaceOnUse" id="SvgjsLinearGradient1742"><stop stop-color="#0e2a47" offset="0"></stop><stop stop-color="rgba(0, 91, 158, 1)" offset="1"></stop></linearGradient></defs></svg>