<svg xmlns="http://www.w3.org/2000/svg" version="1.1" xmlns:xlink="http://www.w3.org/1999/xlink" xmlns:svgjs="http://svgjs.dev/svgjs" width="1440" height="560" preserveAspectRatio="none" viewBox="0 0 1440 560"><g mask="url(&quot;#SvgjsMask1000&quot;)" fill="none"><rect width="1440" height="560" x="0" y="0" fill="#1e3266"></rect><path d="M1512 560L0 560 L0 320.98Q45.57 294.56, 72 340.13Q103.23 251.36, 192 282.59Q269.05 239.64, 312 316.69Q382.08 266.77, 432 336.85Q481.21 314.06, 504 363.28Q539.7 278.98, 624 314.68Q652.96 271.64, 696 300.6Q791.22 275.82, 816 371.04Q826.61 309.64, 888 320.25Q942.87 255.12, 1008 309.99Q1084.24 266.23, 1128 342.47Q1200.63 295.1, 1248 367.73Q1277.47 325.21, 1320 354.68Q1353.39 268.07, 1440 301.46Q1467.2 256.66, 1512 283.86z" fill="#182f5d"></path><path d="M1488 560L0 560 L0 435.51Q38.44 401.94, 72 440.38Q83.91 380.29, 144 392.2Q183.56 311.76, 264 351.33Q311.52 326.85, 336 374.36Q395.75 362.11, 408 421.85Q460.19 354.04, 528 406.22Q567.88 326.11, 648 365.99Q689.38 335.38, 720 376.76Q785.1 369.86, 792 434.96Q814.8 385.76, 864 408.56Q874.65 347.22, 936 357.87Q1009.92 311.79, 1056 385.71Q1135.21 344.92, 1176 424.13Q1218.1 394.23, 1248 436.32Q1286.07 354.38, 1368 392.45Q1420.12 324.57, 1488 376.69z" fill="#25467d"></path><path d="M1464 560L0 560 L0 516.75Q55.99 452.74, 120 508.72Q167.6 436.32, 240 483.91Q286.9 410.81, 360 457.71Q427.67 405.38, 480 473.04Q518.75 391.78, 600 430.53Q645.27 403.8, 672 449.07Q734.66 439.73, 744 502.38Q761.03 447.41, 816 464.44Q829.91 406.35, 888 420.26Q963.26 375.52, 1008 450.78Q1068.07 438.85, 1080 498.91Q1105.97 452.88, 1152 478.86Q1181.18 436.05, 1224 465.23Q1304.63 425.86, 1344 506.48Q1396.56 439.04, 1464 491.6z" fill="#356cb1"></path><path d="M1464 560L0 560 L0 559.58Q35.41 523, 72 558.41Q119.3 485.71, 192 533.02Q246.8 467.82, 312 522.62Q364.06 502.68, 384 554.75Q435.38 534.13, 456 585.52Q489.49 499, 576 532.49Q602.99 487.48, 648 514.47Q732.9 479.37, 768 564.27Q791.98 468.25, 888 492.22Q964.29 448.51, 1008 524.8Q1067.64 512.44, 1080 572.08Q1109.95 482.04, 1200 511.99Q1270.58 462.57, 1320 533.14Q1363.84 504.98, 1392 548.82Q1447.04 531.86, 1464 586.9z" fill="white"></path></g><defs><mask id="SvgjsMask1000"><rect width="1440" height="560" fill="#ffffff"></rect></mask></defs></svg>